<?xml version="1.0" encoding="utf-8"?>
<!-- Generator: Adobe Illustrator 19.0.1, SVG Export Plug-In . SVG Version: 6.00 Build 0)  -->
<svg version="1.1" id="Ebene_1" focusable="false"
  xmlns="http://www.w3.org/2000/svg"
  xmlns:xlink="http://www.w3.org/1999/xlink" x="0px" y="0px" width="36px" height="36px" viewBox="0 0 36 36" enable-background="new 0 0 36 36" xml:space="preserve">
  <g id="ukis">
    <path d="M18,31.5c4.7,0,8.9-2.4,11.3-6.1H6.7C9.1,29.1,13.3,31.5,18,31.5z"/>
    <path d="M4.5,17.1c0,0.3,0,0.6,0,0.9c0,1.7,0.3,3.4,0.9,4.9h21.2L4.5,17.1z"/>
    <path d="M31,21.5c0.3-1.1,0.5-2.3,0.5-3.5c0-3-1-5.7-2.6-7.9L8.7,15.6L31,21.5z"/>
    <path d="M18,4.5c-6,0-11.2,4-12.9,9.5l22-6C24.7,5.8,21.5,4.5,18,4.5z"/>
  </g>
  <g id="dlr_1_">
    <path id="dlr" d="M25.8,13.2V3.8l-9.4,9.4h-8l-7.7,7.7l9.4,0v9.4l9.4-9.4h8l7.7-7.7H25.8L25.8,13.2z M23.9,8.5v4.7h-4.7L23.9,8.5
		L23.9,8.5z M5.4,18.9l3.8-3.8h5.3l-3.8,3.8H5.4L5.4,18.9z M12.1,25.6v-4.8h4.8L12.1,25.6L12.1,25.6z M18.8,18.9h-5.4l3.8-3.8h5.4
		L18.8,18.9L18.8,18.9z M26.8,18.9h-5.2l3.8-3.8h5.2L26.8,18.9L26.8,18.9z M19.6,26.5h1.6c1.8,0,3.3,0.6,3.3,2.9
		c0,2.3-1.6,2.9-3.3,2.9h-1.6V26.5L19.6,26.5z M20.8,31.3h0.6c1,0,1.9-0.7,1.9-2c0-1.2-0.9-2-1.9-2h-0.6V31.3L20.8,31.3z M25.7,26.5
		h1.1v4.8h2.2v0.9h-3.4V26.5L25.7,26.5z M30.1,26.5h1.2c1.2,0,2.7,0,2.7,1.6c0,0.7-0.5,1.2-1.2,1.3v0c0.3,0,0.5,0.3,0.6,0.6l0.9,2.2
		h-1.3l-0.7-1.8c-0.2-0.4-0.3-0.6-0.8-0.6h-0.4v2.4h-1.1V26.5L30.1,26.5z M31.3,28.9h0.4c0.6,0,1.2-0.1,1.2-0.8
		c0-0.7-0.6-0.7-1.2-0.7h-0.4V28.9L31.3,28.9z"/>
  </g>
</svg>
