<?xml version="1.0" encoding="UTF-8" standalone="no"?>
<!DOCTYPE svg PUBLIC "-//W3C//DTD SVG 1.1//EN"
 "http://www.w3.org/Graphics/SVG/1.1/DTD/svg11.dtd">
<!-- Generated by graphviz version 2.40.1 (20161225.0304)
 -->
<!-- Title: dependencies Pages: 1 -->
<svg width="504pt" height="284pt"
 viewBox="0.00 0.00 504.00 284.00" xmlns="http://www.w3.org/2000/svg" xmlns:xlink="http://www.w3.org/1999/xlink">
<g id="graph0" class="graph" transform="scale(1 1) rotate(0) translate(4 280)">
<title>dependencies</title>
<polygon fill="#ffffff" stroke="transparent" points="-4,4 -4,-280 500,-280 500,4 -4,4"/>
<text text-anchor="start" x="227.0091" y="-42.4" font-family="sans-serif" font-weight="bold" font-size="14.00" fill="#000000">Legend</text>
<polygon fill="#ffffb3" stroke="transparent" points="14,-10 14,-30 34,-30 34,-10 14,-10"/>
<text text-anchor="start" x="37.629" y="-15.4" font-family="sans-serif" font-size="14.00" fill="#000000"> &#160;Declarations</text>
<polygon fill="#8dd3c7" stroke="transparent" points="127,-10 127,-30 147,-30 147,-10 127,-10"/>
<text text-anchor="start" x="150.7251" y="-15.4" font-family="sans-serif" font-size="14.00" fill="#000000"> &#160;Module</text>
<polygon fill="#80b1d3" stroke="transparent" points="213,-10 213,-30 233,-30 233,-10 213,-10"/>
<text text-anchor="start" x="236.7812" y="-15.4" font-family="sans-serif" font-size="14.00" fill="#000000"> &#160;Bootstrap</text>
<polygon fill="#fdb462" stroke="transparent" points="310,-10 310,-30 330,-30 330,-10 310,-10"/>
<text text-anchor="start" x="333.6732" y="-15.4" font-family="sans-serif" font-size="14.00" fill="#000000"> &#160;Providers</text>
<polygon fill="#fb8072" stroke="transparent" points="406,-10 406,-30 426,-30 426,-10 406,-10"/>
<text text-anchor="start" x="429.7258" y="-15.4" font-family="sans-serif" font-size="14.00" fill="#000000"> &#160;Exports</text>
<g id="clust1" class="cluster">
<title>cluster_OlMapModule</title>
<polygon fill="none" stroke="#000000" stroke-dasharray="1,5" points="102,-70 102,-268 394,-268 394,-70 102,-70"/>
</g>
<g id="clust2" class="cluster">
<title>cluster_OlMapModule_declarations</title>
<polygon fill="none" stroke="#000000" points="250,-78 250,-130 386,-130 386,-78 250,-78"/>
</g>
<g id="clust5" class="cluster">
<title>cluster_OlMapModule_exports</title>
<polygon fill="none" stroke="#000000" points="178,-208 178,-260 318,-260 318,-208 178,-208"/>
</g>
<g id="clust7" class="cluster">
<title>cluster_OlMapModule_providers</title>
<polygon fill="none" stroke="#000000" points="110,-78 110,-130 242,-130 242,-78 110,-78"/>
</g>
<!-- OlMapComponent -->
<g id="node1" class="node">
<title>OlMapComponent</title>
<polygon fill="#ffffb3" stroke="#000000" points="378.4888,-122 257.5112,-122 257.5112,-86 378.4888,-86 378.4888,-122"/>
<text text-anchor="middle" x="318" y="-99.8" font-family="Times,serif" font-size="14.00" fill="#000000">OlMapComponent</text>
</g>
<!-- OlMapModule -->
<g id="node2" class="node">
<title>OlMapModule</title>
<polygon fill="#8dd3c7" stroke="#000000" points="297.7064,-187 294.7064,-191 273.7064,-191 270.7064,-187 198.2936,-187 198.2936,-151 297.7064,-151 297.7064,-187"/>
<text text-anchor="middle" x="248" y="-164.8" font-family="Times,serif" font-size="14.00" fill="#000000">OlMapModule</text>
</g>
<!-- OlMapComponent&#45;&gt;OlMapModule -->
<g id="edge1" class="edge">
<title>OlMapComponent&#45;&gt;OlMapModule</title>
<path fill="none" stroke="#000000" d="M277.5544,-122.1061C277.5544,-122.1061 277.5544,-140.991 277.5544,-140.991"/>
<polygon fill="#000000" stroke="#000000" points="274.0544,-140.9909 277.5544,-150.991 281.0544,-140.991 274.0544,-140.9909"/>
</g>
<!-- OlMapComponent  -->
<g id="node3" class="node">
<title>OlMapComponent </title>
<polygon fill="#fb8072" stroke="#000000" points="310.4898,-252 185.5102,-252 185.5102,-216 310.4898,-216 310.4898,-252"/>
<text text-anchor="middle" x="248" y="-229.8" font-family="Times,serif" font-size="14.00" fill="#000000">OlMapComponent </text>
</g>
<!-- OlMapModule&#45;&gt;OlMapComponent  -->
<g id="edge2" class="edge">
<title>OlMapModule&#45;&gt;OlMapComponent </title>
<path fill="none" stroke="#000000" stroke-dasharray="5,2" d="M248,-187.1061C248,-187.1061 248,-205.991 248,-205.991"/>
<polygon fill="#000000" stroke="#000000" points="244.5001,-205.9909 248,-215.991 251.5001,-205.991 244.5001,-205.9909"/>
</g>
<!-- Ol4MapSvc -->
<g id="node4" class="node">
<title>Ol4MapSvc</title>
<ellipse fill="#fdb462" stroke="#000000" cx="176" cy="-104" rx="57.9062" ry="18"/>
<text text-anchor="middle" x="176" y="-99.8" font-family="Times,serif" font-size="14.00" fill="#000000">Ol4MapSvc</text>
</g>
<!-- Ol4MapSvc&#45;&gt;OlMapModule -->
<g id="edge3" class="edge">
<title>Ol4MapSvc&#45;&gt;OlMapModule</title>
<path fill="none" stroke="#000000" d="M216.0498,-117.1537C216.0498,-117.1537 216.0498,-140.6938 216.0498,-140.6938"/>
<polygon fill="#000000" stroke="#000000" points="212.5499,-140.6938 216.0498,-150.6938 219.5499,-140.6939 212.5499,-140.6938"/>
</g>
</g>
</svg>
