<?xml version="1.0" encoding="utf-8"?>
<!-- Generator: Adobe Illustrator 15.1.0, SVG Export Plug-In . SVG Version: 6.00 Build 0)  -->
<!DOCTYPE svg PUBLIC "-//W3C//DTD SVG 1.1//EN" "http://www.w3.org/Graphics/SVG/1.1/DTD/svg11.dtd">
<svg version="1.1" xmlns="http://www.w3.org/2000/svg" xmlns:xlink="http://www.w3.org/1999/xlink" x="0px" y="0px"
	 width="116.221px" height="116.22px" viewBox="0 0 116.221 116.22" enable-background="new 0 0 116.221 116.22"
	 xml:space="preserve">
<path fill="#FFFFFF" d="M83.317,34.864V5.736L54.23,34.864H29.271L5.493,58.645l29.278,0.002v29.205l29.218-29.215h24.742
	l23.762-23.773H83.317z M77.343,20.198v14.683H62.66L77.343,20.198z M19.93,52.643L31.69,40.867h16.492L36.414,52.643H19.93z
	 M40.701,73.528V58.636h14.858L40.701,73.528z M61.586,52.643H44.91l11.76-11.776h16.68L61.586,52.643z M86.288,52.643H70.044
	l11.761-11.776h16.251L86.288,52.643z"/>
<path fill="#FFFFFF" d="M68.949,76.132h-4.858v17.759h4.858c5.443,0,10.253-1.832,10.253-8.879
	C79.202,77.967,74.392,76.132,68.949,76.132z M69.636,91.092h-1.981v-12.16h1.981c2.975,0,5.852,2.214,5.852,6.08
	C75.487,88.879,72.611,91.092,69.636,91.092z"/>
<polygon fill="#FFFFFF" points="82.974,76.132 86.537,76.132 86.537,91.092 93.431,91.092 93.431,93.891 82.974,93.891
	82.974,76.132 "/>
<path fill="#FFFFFF" d="M107.055,86.945c-0.355-0.786-0.916-1.755-1.884-1.831v-0.051c2.264-0.305,3.666-2.035,3.666-4.121
	c0-4.936-4.557-4.81-8.374-4.81h-3.841v17.759h3.564v-7.376h1.144c1.5,0,1.957,0.507,2.468,1.829l2.137,5.547h3.968L107.055,86.945z
	 M101.358,83.714h-1.172v-4.782h1.172c1.778,0,3.764,0.18,3.764,2.316C105.122,83.459,103.111,83.714,101.358,83.714z"/>
</svg>
