<?xml version="1.0" encoding="utf-8"?>
<!-- Generator: Adobe Illustrator 15.1.0, SVG Export Plug-In . SVG Version: 6.00 Build 0)  -->
<!DOCTYPE svg PUBLIC "-//W3C//DTD SVG 1.1//EN" "http://www.w3.org/Graphics/SVG/1.1/DTD/svg11.dtd">
<svg version="1.1" id="Layer_1"
  xmlns="http://www.w3.org/2000/svg"
  xmlns:xlink="http://www.w3.org/1999/xlink" x="0px" y="0px" width="600px" height="240px" viewBox="0 0 600 240" enable-background="new 0 0 600 240" xml:space="preserve">
  <g>
    <g>
      <path fill="#B3B3B3" d="M283.9,164.3c-6.102,0-11.3-0.899-15.602-2.6c-4.3-1.7-8-4.2-10.8-7.4c-2.898-3.2-5-6.899-6.3-11.1
			c-1.4-4.3-2-9-2-14.101V73.8h16.2v53.8c0,4,0.398,7.4,1.3,10.301c0.9,2.899,2.2,5.199,3.8,7c1.7,1.801,3.602,3.101,5.9,4
			c2.3,0.899,4.8,1.301,7.6,1.301s5.4-0.4,7.7-1.301c2.3-0.899,4.3-2.199,5.9-4c1.698-1.801,2.898-4.101,3.8-7
			c0.898-2.899,1.3-6.301,1.3-10.301V73.8h16.2v55.4c0,5.1-0.7,9.8-2.102,14.1c-1.398,4.3-3.5,8-6.398,11.101
			c-2.9,3.199-6.5,5.601-10.9,7.399C295.2,163.4,290,164.3,283.9,164.3z"/>
      <path fill="#B3B3B3" d="M392.2,162.4c-2.2-3.4-4.8-7-7.7-10.7c-2.898-3.8-5.898-7.4-9.1-10.9s-6.5-6.8-9.9-10
			c-3.398-3.2-6.8-5.899-10.1-8.2V162.4H339.3V73.8H355.4v36.6c2.8-2.8,5.8-5.8,8.8-9c3.1-3.2,6.1-6.4,9.1-9.7
			c3-3.3,5.9-6.5,8.602-9.5c2.7-3.1,5.2-5.8,7.398-8.3H408.6c-2.802,3.2-5.802,6.6-9,10.1c-3.2,3.5-6.4,7-9.7,10.5s-6.7,7.1-10,10.5
			c-3.4,3.5-6.7,6.8-9.9,10c3.602,2.7,7.2,5.9,10.9,9.5s7.398,7.5,10.898,11.6c3.602,4.102,7,8.4,10.302,12.9
			c3.3,4.5,6.3,8.9,9,13.4H392.2z"/>
      <path fill="#B3B3B3" d="M422.302,73.8h16.1V162.4h-16.1V73.8z"/>
      <path fill="#B3B3B3" d="M480.7,150.3c5.8,0,10-1,12.7-2.899c2.6-2,4-4.699,4-8.301c0-2.1-0.4-4-1.3-5.5
			c-0.9-1.5-2.2-2.898-3.8-4.199c-1.7-1.199-3.7-2.399-6.102-3.5c-2.398-1.101-5.1-2.101-8.199-3.101c-3.101-1.1-6-2.3-8.899-3.6
			c-2.9-1.3-5.4-3-7.5-4.9c-2.2-2-3.9-4.3-5.2-7c-1.3-2.7-2-6-2-9.8c0-8,2.8-14.3,8.3-18.9s13.102-6.8,22.602-6.8
			c5.5,0,10.5,0.6,14.8,1.9c4.3,1.2,7.7,2.6,10.2,4l-5,13c-2.9-1.6-6.102-2.9-9.5-3.7c-3.5-0.9-7-1.3-10.7-1.3
			c-4.3,0-7.7,0.9-10.2,2.7c-2.399,1.8-3.6,4.3-3.6,7.5c0,2,0.398,3.6,1.198,5.1c0.802,1.4,2,2.7,3.5,3.8c1.5,1.1,3.2,2.1,5.2,3.1
			c2,0.9,4.2,1.8,6.602,2.7c4.198,1.5,7.898,3.1,11.198,4.7c3.302,1.6,6.102,3.5,8.302,5.601c2.198,2.101,4,4.699,5.198,7.699
			c1.2,2.9,1.802,6.5,1.802,10.7c0,8-2.802,14.2-8.5,18.601c-5.7,4.399-14,6.601-24.9,6.601c-3.7,0-7-0.2-10-0.7s-5.7-1-8.1-1.699
			c-2.302-0.699-4.4-1.399-6.102-2.101c-1.7-0.701-3.1-1.399-4.1-2l4.7-13.2c2.3,1.301,5.398,2.602,9.3,3.801
			C470.4,149.7,475.2,150.3,480.7,150.3z"/>
    </g>
    <g>
      <path fill="#B3B3B3" d="M117.1,211.7c32.3,0,60.698-16.601,77.1-41.8H40C56.4,195.1,84.8,211.7,117.1,211.7z"/>
      <path fill="#B3B3B3" d="M25.2,113.5c-0.1,2-0.2,4.1-0.2,6.2c0,11.7,2.2,22.899,6.2,33.3h144.3L25.2,113.5z"/>
      <path fill="#B3B3B3" d="M206.1,143.3c2-7.5,3.1-15.5,3.1-23.6c0-20.1-6.5-38.8-17.5-53.9L53.4,103.2L206.1,143.3z"/>
      <path fill="#B3B3B3" d="M117.1,27.6c-41.302,0-76.2,27.1-87.9,64.5L179,51.5C162.7,36.6,140.9,27.6,117.1,27.6z"/>
    </g>
  </g>
</svg>
