<?xml version="1.0" encoding="UTF-8" standalone="no"?>
<!DOCTYPE svg PUBLIC "-//W3C//DTD SVG 1.1//EN"
 "http://www.w3.org/Graphics/SVG/1.1/DTD/svg11.dtd">
<!-- Generated by graphviz version 2.40.1 (20161225.0304)
 -->
<!-- Title: dependencies Pages: 1 -->
<svg width="665pt" height="284pt"
 viewBox="0.00 0.00 665.00 284.00" xmlns="http://www.w3.org/2000/svg" xmlns:xlink="http://www.w3.org/1999/xlink">
<g id="graph0" class="graph" transform="scale(1 1) rotate(0) translate(4 280)">
<title>dependencies</title>
<polygon fill="#ffffff" stroke="transparent" points="-4,4 -4,-280 661,-280 661,4 -4,4"/>
<text text-anchor="start" x="307.5091" y="-42.4" font-family="sans-serif" font-weight="bold" font-size="14.00" fill="#000000">Legend</text>
<polygon fill="#ffffb3" stroke="transparent" points="94.5,-10 94.5,-30 114.5,-30 114.5,-10 94.5,-10"/>
<text text-anchor="start" x="118.129" y="-15.4" font-family="sans-serif" font-size="14.00" fill="#000000"> &#160;Declarations</text>
<polygon fill="#8dd3c7" stroke="transparent" points="207.5,-10 207.5,-30 227.5,-30 227.5,-10 207.5,-10"/>
<text text-anchor="start" x="231.2251" y="-15.4" font-family="sans-serif" font-size="14.00" fill="#000000"> &#160;Module</text>
<polygon fill="#80b1d3" stroke="transparent" points="293.5,-10 293.5,-30 313.5,-30 313.5,-10 293.5,-10"/>
<text text-anchor="start" x="317.2812" y="-15.4" font-family="sans-serif" font-size="14.00" fill="#000000"> &#160;Bootstrap</text>
<polygon fill="#fdb462" stroke="transparent" points="390.5,-10 390.5,-30 410.5,-30 410.5,-10 390.5,-10"/>
<text text-anchor="start" x="414.1732" y="-15.4" font-family="sans-serif" font-size="14.00" fill="#000000"> &#160;Providers</text>
<polygon fill="#fb8072" stroke="transparent" points="486.5,-10 486.5,-30 506.5,-30 506.5,-10 486.5,-10"/>
<text text-anchor="start" x="510.2258" y="-15.4" font-family="sans-serif" font-size="14.00" fill="#000000"> &#160;Exports</text>
<g id="clust1" class="cluster">
<title>cluster_UserinfoModule</title>
<polygon fill="none" stroke="#000000" stroke-dasharray="1,5" points="8,-70 8,-268 649,-268 649,-70 8,-70"/>
</g>
<g id="clust2" class="cluster">
<title>cluster_UserinfoModule_declarations</title>
<polygon fill="none" stroke="#000000" points="24,-78 24,-130 635,-130 635,-78 24,-78"/>
</g>
<g id="clust8" class="cluster">
<title>cluster_UserinfoModule_exports</title>
<polygon fill="none" stroke="#000000" points="16,-208 16,-260 641,-260 641,-208 16,-208"/>
</g>
<!-- UserdetailsComponent -->
<g id="node1" class="node">
<title>UserdetailsComponent</title>
<polygon fill="#ffffb3" stroke="#000000" points="627.3047,-122 482.6953,-122 482.6953,-86 627.3047,-86 627.3047,-122"/>
<text text-anchor="middle" x="555" y="-99.8" font-family="Times,serif" font-size="14.00" fill="#000000">UserdetailsComponent</text>
</g>
<!-- UserinfoModule -->
<g id="node5" class="node">
<title>UserinfoModule</title>
<polygon fill="#8dd3c7" stroke="#000000" points="294.0284,-187 291.0284,-191 270.0284,-191 267.0284,-187 185.9716,-187 185.9716,-151 294.0284,-151 294.0284,-187"/>
<text text-anchor="middle" x="240" y="-164.8" font-family="Times,serif" font-size="14.00" fill="#000000">UserinfoModule</text>
</g>
<!-- UserdetailsComponent&#45;&gt;UserinfoModule -->
<g id="edge1" class="edge">
<title>UserdetailsComponent&#45;&gt;UserinfoModule</title>
<path fill="none" stroke="#000000" d="M579.8007,-122.2667C579.8007,-140.5552 579.8007,-166 579.8007,-166 579.8007,-166 304.2182,-166 304.2182,-166"/>
<polygon fill="#000000" stroke="#000000" points="304.2182,-162.5001 294.2182,-166 304.2181,-169.5001 304.2182,-162.5001"/>
</g>
<!-- RegisteruserComponent -->
<g id="node2" class="node">
<title>RegisteruserComponent</title>
<polygon fill="#ffffb3" stroke="#000000" points="464.8047,-122 313.1953,-122 313.1953,-86 464.8047,-86 464.8047,-122"/>
<text text-anchor="middle" x="389" y="-99.8" font-family="Times,serif" font-size="14.00" fill="#000000">RegisteruserComponent</text>
</g>
<!-- RegisteruserComponent&#45;&gt;UserinfoModule -->
<g id="edge2" class="edge">
<title>RegisteruserComponent&#45;&gt;UserinfoModule</title>
<path fill="none" stroke="#000000" d="M414.2174,-122.0091C414.2174,-138.0494 414.2174,-159 414.2174,-159 414.2174,-159 304.1685,-159 304.1685,-159"/>
<polygon fill="#000000" stroke="#000000" points="304.1685,-155.5001 294.1685,-159 304.1684,-162.5001 304.1685,-155.5001"/>
</g>
<!-- LoginComponent -->
<g id="node3" class="node">
<title>LoginComponent</title>
<polygon fill="#ffffb3" stroke="#000000" points="295.2758,-122 180.7242,-122 180.7242,-86 295.2758,-86 295.2758,-122"/>
<text text-anchor="middle" x="238" y="-99.8" font-family="Times,serif" font-size="14.00" fill="#000000">LoginComponent</text>
</g>
<!-- LoginComponent&#45;&gt;UserinfoModule -->
<g id="edge3" class="edge">
<title>LoginComponent&#45;&gt;UserinfoModule</title>
<path fill="none" stroke="#000000" d="M240,-122.1061C240,-122.1061 240,-140.991 240,-140.991"/>
<polygon fill="#000000" stroke="#000000" points="236.5001,-140.9909 240,-150.991 243.5001,-140.991 236.5001,-140.9909"/>
</g>
<!-- UserinfoComponent -->
<g id="node4" class="node">
<title>UserinfoComponent</title>
<polygon fill="#ffffb3" stroke="#000000" points="162.3104,-122 31.6896,-122 31.6896,-86 162.3104,-86 162.3104,-122"/>
<text text-anchor="middle" x="97" y="-99.8" font-family="Times,serif" font-size="14.00" fill="#000000">UserinfoComponent</text>
</g>
<!-- UserinfoComponent&#45;&gt;UserinfoModule -->
<g id="edge4" class="edge">
<title>UserinfoComponent&#45;&gt;UserinfoModule</title>
<path fill="none" stroke="#000000" d="M115.885,-122.0225C115.885,-139.3734 115.885,-163 115.885,-163 115.885,-163 175.9224,-163 175.9224,-163"/>
<polygon fill="#000000" stroke="#000000" points="175.9224,-166.5001 185.9224,-163 175.9224,-159.5001 175.9224,-166.5001"/>
</g>
<!-- UserdetailsComponent  -->
<g id="node6" class="node">
<title>UserdetailsComponent </title>
<polygon fill="#fb8072" stroke="#000000" points="632.8045,-252 485.1955,-252 485.1955,-216 632.8045,-216 632.8045,-252"/>
<text text-anchor="middle" x="559" y="-229.8" font-family="Times,serif" font-size="14.00" fill="#000000">UserdetailsComponent </text>
</g>
<!-- UserinfoModule&#45;&gt;UserdetailsComponent  -->
<g id="edge5" class="edge">
<title>UserinfoModule&#45;&gt;UserdetailsComponent </title>
<path fill="none" stroke="#000000" stroke-dasharray="5,2" d="M294.3221,-173C378.8962,-173 532.4493,-173 532.4493,-173 532.4493,-173 532.4493,-205.698 532.4493,-205.698"/>
<polygon fill="#000000" stroke="#000000" points="528.9494,-205.698 532.4493,-215.698 535.9494,-205.698 528.9494,-205.698"/>
</g>
<!-- RegisteruserComponent  -->
<g id="node7" class="node">
<title>RegisteruserComponent </title>
<polygon fill="#fb8072" stroke="#000000" points="467.3045,-252 312.6955,-252 312.6955,-216 467.3045,-216 467.3045,-252"/>
<text text-anchor="middle" x="390" y="-229.8" font-family="Times,serif" font-size="14.00" fill="#000000">RegisteruserComponent </text>
</g>
<!-- UserinfoModule&#45;&gt;RegisteruserComponent  -->
<g id="edge6" class="edge">
<title>UserinfoModule&#45;&gt;RegisteruserComponent </title>
<path fill="none" stroke="#000000" stroke-dasharray="5,2" d="M294.2929,-180C327.5517,-180 363.7826,-180 363.7826,-180 363.7826,-180 363.7826,-205.7181 363.7826,-205.7181"/>
<polygon fill="#000000" stroke="#000000" points="360.2827,-205.718 363.7826,-215.7181 367.2827,-205.7181 360.2827,-205.718"/>
</g>
<!-- LoginComponent  -->
<g id="node8" class="node">
<title>LoginComponent </title>
<polygon fill="#fb8072" stroke="#000000" points="294.2759,-252 175.7241,-252 175.7241,-216 294.2759,-216 294.2759,-252"/>
<text text-anchor="middle" x="235" y="-229.8" font-family="Times,serif" font-size="14.00" fill="#000000">LoginComponent </text>
</g>
<!-- UserinfoModule&#45;&gt;LoginComponent  -->
<g id="edge7" class="edge">
<title>UserinfoModule&#45;&gt;LoginComponent </title>
<path fill="none" stroke="#000000" stroke-dasharray="5,2" d="M239.9371,-187.1061C239.9371,-187.1061 239.9371,-205.991 239.9371,-205.991"/>
<polygon fill="#000000" stroke="#000000" points="236.4371,-205.9909 239.9371,-215.991 243.4371,-205.991 236.4371,-205.9909"/>
</g>
<!-- UserinfoComponent  -->
<g id="node9" class="node">
<title>UserinfoComponent </title>
<polygon fill="#fb8072" stroke="#000000" points="157.8101,-252 24.1899,-252 24.1899,-216 157.8101,-216 157.8101,-252"/>
<text text-anchor="middle" x="91" y="-229.8" font-family="Times,serif" font-size="14.00" fill="#000000">UserinfoComponent </text>
</g>
<!-- UserinfoModule&#45;&gt;UserinfoComponent  -->
<g id="edge8" class="edge">
<title>UserinfoModule&#45;&gt;UserinfoComponent </title>
<path fill="none" stroke="#000000" stroke-dasharray="5,2" d="M185.6012,-175C137.1492,-175 73.865,-175 73.865,-175 73.865,-175 73.865,-205.9775 73.865,-205.9775"/>
<polygon fill="#000000" stroke="#000000" points="70.3651,-205.9774 73.865,-215.9775 77.3651,-205.9775 70.3651,-205.9774"/>
</g>
</g>
</svg>
