<?xml version="1.0" encoding="utf-8"?>
<!-- Generator: Adobe Illustrator 21.1.0, SVG Export Plug-In . SVG Version: 6.00 Build 0)  -->
<svg version="1.1" id="Layer_1"
  xmlns="http://www.w3.org/2000/svg"
  xmlns:xlink="http://www.w3.org/1999/xlink" x="0px" y="0px" viewBox="0 0 580 220" style="enable-background:new 0 0 580 220;" xml:space="preserve">
  <style type="text/css">
	.st0{fill:#FFFFFF;}
  </style>
  <path id="normal" class="st0" d="M284,210c-55.1,0-100-44.9-100-100S228.9,10,284,10s100,44.9,100,100S339.1,210,284,210z M284,28.2
	c-45.1,0-81.8,36.7-81.8,81.8s36.7,81.8,81.8,81.8s81.8-36.7,81.8-81.8S329.1,28.2,284,28.2z M566,180.7l-12.9-12.9
	c-31.9,31.9-83.8,31.9-115.7,0c-31.9-31.9-31.9-83.8,0-115.7c31.9-31.9,83.8-31.9,115.7,0L566,39.3c-39-39-102.5-39-141.5,0
	s-39,102.5,0,141.5c19.5,19.5,45.1,29.3,70.7,29.3S546.5,200.2,566,180.7z M184.7,180.7l-12.9-12.9c-31.9,31.9-83.8,31.9-115.7,0
	c-15.5-15.5-24-36-24-57.8c0-21.9,8.5-42.4,24-57.8c28.6-28.6,73.4-31.8,105.5-8.7l-67.8,75.2l13.5,12.2l80.3-89.1l-6.7-6.1
	C141.4,0.1,80.9,1.7,43.3,39.3C24.4,58.2,14,83.3,14,110c0,26.7,10.4,51.8,29.3,70.7C62.8,200.2,88.4,210,114,210
	C139.6,210,165.2,200.2,184.7,180.7z"/>
</svg>
