<?xml version="1.0" encoding="UTF-8" standalone="no"?>
<!DOCTYPE svg PUBLIC "-//W3C//DTD SVG 1.1//EN"
 "http://www.w3.org/Graphics/SVG/1.1/DTD/svg11.dtd">
<!-- Generated by graphviz version 2.40.1 (20161225.0304)
 -->
<!-- Title: dependencies Pages: 1 -->
<svg width="1660pt" height="284pt"
 viewBox="0.00 0.00 1660.00 284.00" xmlns="http://www.w3.org/2000/svg" xmlns:xlink="http://www.w3.org/1999/xlink">
<g id="graph0" class="graph" transform="scale(1 1) rotate(0) translate(4 280)">
<title>dependencies</title>
<polygon fill="#ffffff" stroke="transparent" points="-4,4 -4,-280 1656,-280 1656,4 -4,4"/>
<text text-anchor="start" x="805.0091" y="-42.4" font-family="sans-serif" font-weight="bold" font-size="14.00" fill="#000000">Legend</text>
<polygon fill="#ffffb3" stroke="transparent" points="592,-10 592,-30 612,-30 612,-10 592,-10"/>
<text text-anchor="start" x="615.629" y="-15.4" font-family="sans-serif" font-size="14.00" fill="#000000"> &#160;Declarations</text>
<polygon fill="#8dd3c7" stroke="transparent" points="705,-10 705,-30 725,-30 725,-10 705,-10"/>
<text text-anchor="start" x="728.7251" y="-15.4" font-family="sans-serif" font-size="14.00" fill="#000000"> &#160;Module</text>
<polygon fill="#80b1d3" stroke="transparent" points="791,-10 791,-30 811,-30 811,-10 791,-10"/>
<text text-anchor="start" x="814.7812" y="-15.4" font-family="sans-serif" font-size="14.00" fill="#000000"> &#160;Bootstrap</text>
<polygon fill="#fdb462" stroke="transparent" points="888,-10 888,-30 908,-30 908,-10 888,-10"/>
<text text-anchor="start" x="911.6732" y="-15.4" font-family="sans-serif" font-size="14.00" fill="#000000"> &#160;Providers</text>
<polygon fill="#fb8072" stroke="transparent" points="984,-10 984,-30 1004,-30 1004,-10 984,-10"/>
<text text-anchor="start" x="1007.7258" y="-15.4" font-family="sans-serif" font-size="14.00" fill="#000000"> &#160;Exports</text>
<g id="clust1" class="cluster">
<title>cluster_UkisModule</title>
<polygon fill="none" stroke="#000000" stroke-dasharray="1,5" points="8,-70 8,-268 1644,-268 1644,-70 8,-70"/>
</g>
<g id="clust2" class="cluster">
<title>cluster_UkisModule_declarations</title>
<polygon fill="none" stroke="#000000" points="878,-78 878,-130 1636,-130 1636,-78 878,-78"/>
</g>
<g id="clust8" class="cluster">
<title>cluster_UkisModule_imports</title>
<polygon fill="none" stroke="#000000" points="330,-78 330,-130 870,-130 870,-78 330,-78"/>
</g>
<g id="clust10" class="cluster">
<title>cluster_UkisModule_bootstrap</title>
<polygon fill="none" stroke="#000000" points="748,-208 748,-260 876,-260 876,-208 748,-208"/>
</g>
<g id="clust11" class="cluster">
<title>cluster_UkisModule_providers</title>
<polygon fill="none" stroke="#000000" points="16,-78 16,-130 322,-130 322,-78 16,-78"/>
</g>
<!-- UkisComponent -->
<g id="node1" class="node">
<title>UkisComponent</title>
<polygon fill="#ffffb3" stroke="#000000" points="1627.7744,-122 1520.2256,-122 1520.2256,-86 1627.7744,-86 1627.7744,-122"/>
<text text-anchor="middle" x="1574" y="-99.8" font-family="Times,serif" font-size="14.00" fill="#000000">UkisComponent</text>
</g>
<!-- UkisModule -->
<g id="node6" class="node">
<title>UkisModule</title>
<polygon fill="#8dd3c7" stroke="#000000" points="854.9916,-187 851.9916,-191 830.9916,-191 827.9916,-187 769.0084,-187 769.0084,-151 854.9916,-151 854.9916,-187"/>
<text text-anchor="middle" x="812" y="-164.8" font-family="Times,serif" font-size="14.00" fill="#000000">UkisModule</text>
</g>
<!-- UkisComponent&#45;&gt;UkisModule -->
<g id="edge1" class="edge">
<title>UkisComponent&#45;&gt;UkisModule</title>
<path fill="none" stroke="#000000" d="M1574,-122.2479C1574,-145.0179 1574,-181 1574,-181 1574,-181 865.1517,-181 865.1517,-181"/>
<polygon fill="#000000" stroke="#000000" points="865.1517,-177.5001 855.1517,-181 865.1517,-184.5001 865.1517,-177.5001"/>
</g>
<!-- GlobalAlertComponent -->
<g id="node2" class="node">
<title>GlobalAlertComponent</title>
<polygon fill="#ffffb3" stroke="#000000" points="1502.1979,-122 1353.8021,-122 1353.8021,-86 1502.1979,-86 1502.1979,-122"/>
<text text-anchor="middle" x="1428" y="-99.8" font-family="Times,serif" font-size="14.00" fill="#000000">GlobalAlertComponent</text>
</g>
<!-- GlobalAlertComponent&#45;&gt;UkisModule -->
<g id="edge2" class="edge">
<title>GlobalAlertComponent&#45;&gt;UkisModule</title>
<path fill="none" stroke="#000000" d="M1428,-122.2843C1428,-143.3211 1428,-175 1428,-175 1428,-175 865.3159,-175 865.3159,-175"/>
<polygon fill="#000000" stroke="#000000" points="865.316,-171.5001 855.3159,-175 865.3159,-178.5001 865.316,-171.5001"/>
</g>
<!-- HeaderComponent -->
<g id="node3" class="node">
<title>HeaderComponent</title>
<polygon fill="#ffffb3" stroke="#000000" points="1335.7437,-122 1214.2563,-122 1214.2563,-86 1335.7437,-86 1335.7437,-122"/>
<text text-anchor="middle" x="1275" y="-99.8" font-family="Times,serif" font-size="14.00" fill="#000000">HeaderComponent</text>
</g>
<!-- HeaderComponent&#45;&gt;UkisModule -->
<g id="edge3" class="edge">
<title>HeaderComponent&#45;&gt;UkisModule</title>
<path fill="none" stroke="#000000" d="M1275,-122.1061C1275,-141.3391 1275,-169 1275,-169 1275,-169 865.1421,-169 865.1421,-169"/>
<polygon fill="#000000" stroke="#000000" points="865.1422,-165.5001 855.1421,-169 865.1421,-172.5001 865.1422,-165.5001"/>
</g>
<!-- LayerlistComponent -->
<g id="node4" class="node">
<title>LayerlistComponent</title>
<polygon fill="#ffffb3" stroke="#000000" points="1196.5912,-122 1065.4088,-122 1065.4088,-86 1196.5912,-86 1196.5912,-122"/>
<text text-anchor="middle" x="1131" y="-99.8" font-family="Times,serif" font-size="14.00" fill="#000000">LayerlistComponent</text>
</g>
<!-- LayerlistComponent&#45;&gt;UkisModule -->
<g id="edge4" class="edge">
<title>LayerlistComponent&#45;&gt;UkisModule</title>
<path fill="none" stroke="#000000" d="M1131,-122.0225C1131,-139.3734 1131,-163 1131,-163 1131,-163 865.0218,-163 865.0218,-163"/>
<polygon fill="#000000" stroke="#000000" points="865.0218,-159.5001 855.0218,-163 865.0217,-166.5001 865.0218,-159.5001"/>
</g>
<!-- LayerpropertyComponent -->
<g id="node5" class="node">
<title>LayerpropertyComponent</title>
<polygon fill="#ffffb3" stroke="#000000" points="1047.9017,-122 886.0983,-122 886.0983,-86 1047.9017,-86 1047.9017,-122"/>
<text text-anchor="middle" x="967" y="-99.8" font-family="Times,serif" font-size="14.00" fill="#000000">LayerpropertyComponent</text>
</g>
<!-- LayerpropertyComponent&#45;&gt;UkisModule -->
<g id="edge5" class="edge">
<title>LayerpropertyComponent&#45;&gt;UkisModule</title>
<path fill="none" stroke="#000000" d="M967,-122.2396C967,-137.5706 967,-157 967,-157 967,-157 865.1761,-157 865.1761,-157"/>
<polygon fill="#000000" stroke="#000000" points="865.1762,-153.5001 855.1761,-157 865.1761,-160.5001 865.1762,-153.5001"/>
</g>
<!-- UkisComponent  -->
<g id="node11" class="node">
<title>UkisComponent </title>
<polygon fill="#80b1d3" stroke="#000000" points="867.7745,-252 756.2255,-252 756.2255,-216 867.7745,-216 867.7745,-252"/>
<text text-anchor="middle" x="812" y="-229.8" font-family="Times,serif" font-size="14.00" fill="#000000">UkisComponent </text>
</g>
<!-- UkisModule&#45;&gt;UkisComponent  -->
<g id="edge10" class="edge">
<title>UkisModule&#45;&gt;UkisComponent </title>
<path fill="none" stroke="#000000" stroke-dasharray="1,5" d="M812,-187.1061C812,-187.1061 812,-205.991 812,-205.991"/>
<polygon fill="#000000" stroke="#000000" points="808.5001,-205.9909 812,-215.991 815.5001,-205.991 808.5001,-205.9909"/>
</g>
<!-- OlMapModule -->
<g id="node7" class="node">
<title>OlMapModule</title>
<polygon fill="#8dd3c7" stroke="#000000" points="861.7064,-122 858.7064,-126 837.7064,-126 834.7064,-122 762.2936,-122 762.2936,-86 861.7064,-86 861.7064,-122"/>
<text text-anchor="middle" x="812" y="-99.8" font-family="Times,serif" font-size="14.00" fill="#000000">OlMapModule</text>
</g>
<!-- OlMapModule&#45;&gt;UkisModule -->
<g id="edge6" class="edge">
<title>OlMapModule&#45;&gt;UkisModule</title>
<path fill="none" stroke="#000000" d="M812,-122.1061C812,-122.1061 812,-140.991 812,-140.991"/>
<polygon fill="#000000" stroke="#000000" points="808.5001,-140.9909 812,-150.991 815.5001,-140.991 808.5001,-140.9909"/>
</g>
<!-- MapcontrolModule -->
<g id="node8" class="node">
<title>MapcontrolModule</title>
<polygon fill="#8dd3c7" stroke="#000000" points="744.3655,-122 741.3655,-126 720.3655,-126 717.3655,-122 619.6345,-122 619.6345,-86 744.3655,-86 744.3655,-122"/>
<text text-anchor="middle" x="682" y="-99.8" font-family="Times,serif" font-size="14.00" fill="#000000">MapcontrolModule</text>
</g>
<!-- MapcontrolModule&#45;&gt;UkisModule -->
<g id="edge7" class="edge">
<title>MapcontrolModule&#45;&gt;UkisModule</title>
<path fill="none" stroke="#000000" d="M682,-122.2396C682,-137.5706 682,-157 682,-157 682,-157 758.7119,-157 758.7119,-157"/>
<polygon fill="#000000" stroke="#000000" points="758.7119,-160.5001 768.7119,-157 758.7118,-153.5001 758.7119,-160.5001"/>
</g>
<!-- MapnavigatorModule -->
<g id="node9" class="node">
<title>MapnavigatorModule</title>
<polygon fill="#8dd3c7" stroke="#000000" points="602.08,-122 599.08,-126 578.08,-126 575.08,-122 463.92,-122 463.92,-86 602.08,-86 602.08,-122"/>
<text text-anchor="middle" x="533" y="-99.8" font-family="Times,serif" font-size="14.00" fill="#000000">MapnavigatorModule</text>
</g>
<!-- MapnavigatorModule&#45;&gt;UkisModule -->
<g id="edge8" class="edge">
<title>MapnavigatorModule&#45;&gt;UkisModule</title>
<path fill="none" stroke="#000000" d="M533,-122.0225C533,-139.3734 533,-163 533,-163 533,-163 758.7124,-163 758.7124,-163"/>
<polygon fill="#000000" stroke="#000000" points="758.7124,-166.5001 768.7124,-163 758.7123,-159.5001 758.7124,-166.5001"/>
</g>
<!-- UserinfoModule -->
<g id="node10" class="node">
<title>UserinfoModule</title>
<polygon fill="#8dd3c7" stroke="#000000" points="446.0284,-122 443.0284,-126 422.0284,-126 419.0284,-122 337.9716,-122 337.9716,-86 446.0284,-86 446.0284,-122"/>
<text text-anchor="middle" x="392" y="-99.8" font-family="Times,serif" font-size="14.00" fill="#000000">UserinfoModule</text>
</g>
<!-- UserinfoModule&#45;&gt;UkisModule -->
<g id="edge9" class="edge">
<title>UserinfoModule&#45;&gt;UkisModule</title>
<path fill="none" stroke="#000000" d="M392,-122.1061C392,-141.3391 392,-169 392,-169 392,-169 758.6345,-169 758.6345,-169"/>
<polygon fill="#000000" stroke="#000000" points="758.6346,-172.5001 768.6345,-169 758.6345,-165.5001 758.6346,-172.5001"/>
</g>
<!-- AuthService -->
<g id="node12" class="node">
<title>AuthService</title>
<ellipse fill="#fdb462" stroke="#000000" cx="255" cy="-104" rx="59.1083" ry="18"/>
<text text-anchor="middle" x="255" y="-99.8" font-family="Times,serif" font-size="14.00" fill="#000000">AuthService</text>
</g>
<!-- AuthService&#45;&gt;UkisModule -->
<g id="edge11" class="edge">
<title>AuthService&#45;&gt;UkisModule</title>
<path fill="none" stroke="#000000" d="M255,-122.2843C255,-143.3211 255,-175 255,-175 255,-175 758.7566,-175 758.7566,-175"/>
<polygon fill="#000000" stroke="#000000" points="758.7567,-178.5001 768.7566,-175 758.7566,-171.5001 758.7567,-178.5001"/>
</g>
<!-- AppStoreService -->
<g id="node13" class="node">
<title>AppStoreService</title>
<ellipse fill="#fdb462" stroke="#000000" cx="101" cy="-104" rx="77.0043" ry="18"/>
<text text-anchor="middle" x="101" y="-99.8" font-family="Times,serif" font-size="14.00" fill="#000000">AppStoreService</text>
</g>
<!-- AppStoreService&#45;&gt;UkisModule -->
<g id="edge12" class="edge">
<title>AppStoreService&#45;&gt;UkisModule</title>
<path fill="none" stroke="#000000" d="M101,-122.2479C101,-145.0179 101,-181 101,-181 101,-181 758.8599,-181 758.8599,-181"/>
<polygon fill="#000000" stroke="#000000" points="758.8599,-184.5001 768.8599,-181 758.8598,-177.5001 758.8599,-184.5001"/>
</g>
</g>
</svg>
