<?xml version="1.0" encoding="UTF-8" standalone="no"?>
<!DOCTYPE svg PUBLIC "-//W3C//DTD SVG 1.1//EN"
 "http://www.w3.org/Graphics/SVG/1.1/DTD/svg11.dtd">
<!-- Generated by graphviz version 2.40.1 (20161225.0304)
 -->
<!-- Title: dependencies Pages: 1 -->
<svg width="1174pt" height="284pt"
 viewBox="0.00 0.00 1174.00 284.00" xmlns="http://www.w3.org/2000/svg" xmlns:xlink="http://www.w3.org/1999/xlink">
<g id="graph0" class="graph" transform="scale(1 1) rotate(0) translate(4 280)">
<title>dependencies</title>
<polygon fill="#ffffff" stroke="transparent" points="-4,4 -4,-280 1170,-280 1170,4 -4,4"/>
<text text-anchor="start" x="562.0091" y="-42.4" font-family="sans-serif" font-weight="bold" font-size="14.00" fill="#000000">Legend</text>
<polygon fill="#ffffb3" stroke="transparent" points="349,-10 349,-30 369,-30 369,-10 349,-10"/>
<text text-anchor="start" x="372.629" y="-15.4" font-family="sans-serif" font-size="14.00" fill="#000000"> &#160;Declarations</text>
<polygon fill="#8dd3c7" stroke="transparent" points="462,-10 462,-30 482,-30 482,-10 462,-10"/>
<text text-anchor="start" x="485.7251" y="-15.4" font-family="sans-serif" font-size="14.00" fill="#000000"> &#160;Module</text>
<polygon fill="#80b1d3" stroke="transparent" points="548,-10 548,-30 568,-30 568,-10 548,-10"/>
<text text-anchor="start" x="571.7812" y="-15.4" font-family="sans-serif" font-size="14.00" fill="#000000"> &#160;Bootstrap</text>
<polygon fill="#fdb462" stroke="transparent" points="645,-10 645,-30 665,-30 665,-10 645,-10"/>
<text text-anchor="start" x="668.6732" y="-15.4" font-family="sans-serif" font-size="14.00" fill="#000000"> &#160;Providers</text>
<polygon fill="#fb8072" stroke="transparent" points="741,-10 741,-30 761,-30 761,-10 741,-10"/>
<text text-anchor="start" x="764.7258" y="-15.4" font-family="sans-serif" font-size="14.00" fill="#000000"> &#160;Exports</text>
<g id="clust1" class="cluster">
<title>cluster_UkisModule</title>
<polygon fill="none" stroke="#000000" stroke-dasharray="1,5" points="8,-70 8,-268 1158,-268 1158,-70 8,-70"/>
</g>
<g id="clust2" class="cluster">
<title>cluster_UkisModule_declarations</title>
<polygon fill="none" stroke="#000000" points="720,-78 720,-130 1150,-130 1150,-78 720,-78"/>
</g>
<g id="clust6" class="cluster">
<title>cluster_UkisModule_imports</title>
<polygon fill="none" stroke="#000000" points="16,-78 16,-130 712,-130 712,-78 16,-78"/>
</g>
<g id="clust8" class="cluster">
<title>cluster_UkisModule_bootstrap</title>
<polygon fill="none" stroke="#000000" points="525,-208 525,-260 653,-260 653,-208 525,-208"/>
</g>
<!-- UkisComponent -->
<g id="node1" class="node">
<title>UkisComponent</title>
<polygon fill="#ffffb3" stroke="#000000" points="1141.7744,-122 1034.2256,-122 1034.2256,-86 1141.7744,-86 1141.7744,-122"/>
<text text-anchor="middle" x="1088" y="-99.8" font-family="Times,serif" font-size="14.00" fill="#000000">UkisComponent</text>
</g>
<!-- UkisModule -->
<g id="node4" class="node">
<title>UkisModule</title>
<polygon fill="#8dd3c7" stroke="#000000" points="631.9916,-187 628.9916,-191 607.9916,-191 604.9916,-187 546.0084,-187 546.0084,-151 631.9916,-151 631.9916,-187"/>
<text text-anchor="middle" x="589" y="-164.8" font-family="Times,serif" font-size="14.00" fill="#000000">UkisModule</text>
</g>
<!-- UkisComponent&#45;&gt;UkisModule -->
<g id="edge1" class="edge">
<title>UkisComponent&#45;&gt;UkisModule</title>
<path fill="none" stroke="#000000" d="M1088,-122.2921C1088,-144.2057 1088,-178 1088,-178 1088,-178 642.4101,-178 642.4101,-178"/>
<polygon fill="#000000" stroke="#000000" points="642.4101,-174.5001 632.4101,-178 642.41,-181.5001 642.4101,-174.5001"/>
</g>
<!-- GlobalAlertComponent -->
<g id="node2" class="node">
<title>GlobalAlertComponent</title>
<polygon fill="#ffffb3" stroke="#000000" points="1016.1979,-122 867.8021,-122 867.8021,-86 1016.1979,-86 1016.1979,-122"/>
<text text-anchor="middle" x="942" y="-99.8" font-family="Times,serif" font-size="14.00" fill="#000000">GlobalAlertComponent</text>
</g>
<!-- GlobalAlertComponent&#45;&gt;UkisModule -->
<g id="edge2" class="edge">
<title>GlobalAlertComponent&#45;&gt;UkisModule</title>
<path fill="none" stroke="#000000" d="M942,-122.1061C942,-141.3391 942,-169 942,-169 942,-169 642.2847,-169 642.2847,-169"/>
<polygon fill="#000000" stroke="#000000" points="642.2848,-165.5001 632.2847,-169 642.2847,-172.5001 642.2848,-165.5001"/>
</g>
<!-- HeaderComponent -->
<g id="node3" class="node">
<title>HeaderComponent</title>
<polygon fill="#ffffb3" stroke="#000000" points="849.7437,-122 728.2563,-122 728.2563,-86 849.7437,-86 849.7437,-122"/>
<text text-anchor="middle" x="789" y="-99.8" font-family="Times,serif" font-size="14.00" fill="#000000">HeaderComponent</text>
</g>
<!-- HeaderComponent&#45;&gt;UkisModule -->
<g id="edge3" class="edge">
<title>HeaderComponent&#45;&gt;UkisModule</title>
<path fill="none" stroke="#000000" d="M789,-122.027C789,-138.3976 789,-160 789,-160 789,-160 642.397,-160 642.397,-160"/>
<polygon fill="#000000" stroke="#000000" points="642.3971,-156.5001 632.397,-160 642.397,-163.5001 642.3971,-156.5001"/>
</g>
<!-- UkisComponent  -->
<g id="node10" class="node">
<title>UkisComponent </title>
<polygon fill="#80b1d3" stroke="#000000" points="644.7745,-252 533.2255,-252 533.2255,-216 644.7745,-216 644.7745,-252"/>
<text text-anchor="middle" x="589" y="-229.8" font-family="Times,serif" font-size="14.00" fill="#000000">UkisComponent </text>
</g>
<!-- UkisModule&#45;&gt;UkisComponent  -->
<g id="edge9" class="edge">
<title>UkisModule&#45;&gt;UkisComponent </title>
<path fill="none" stroke="#000000" stroke-dasharray="1,5" d="M589,-187.1061C589,-187.1061 589,-205.991 589,-205.991"/>
<polygon fill="#000000" stroke="#000000" points="585.5001,-205.9909 589,-215.991 592.5001,-205.991 585.5001,-205.9909"/>
</g>
<!-- OlMapModule -->
<g id="node5" class="node">
<title>OlMapModule</title>
<polygon fill="#8dd3c7" stroke="#000000" points="703.7064,-122 700.7064,-126 679.7064,-126 676.7064,-122 604.2936,-122 604.2936,-86 703.7064,-86 703.7064,-122"/>
<text text-anchor="middle" x="654" y="-99.8" font-family="Times,serif" font-size="14.00" fill="#000000">OlMapModule</text>
</g>
<!-- OlMapModule&#45;&gt;UkisModule -->
<g id="edge4" class="edge">
<title>OlMapModule&#45;&gt;UkisModule</title>
<path fill="none" stroke="#000000" d="M618.1963,-122.1061C618.1963,-122.1061 618.1963,-140.991 618.1963,-140.991"/>
<polygon fill="#000000" stroke="#000000" points="614.6964,-140.9909 618.1963,-150.991 621.6964,-140.991 614.6964,-140.9909"/>
</g>
<!-- WWWMapModule -->
<g id="node6" class="node">
<title>WWWMapModule</title>
<polygon fill="#8dd3c7" stroke="#000000" points="586.3529,-122 583.3529,-126 562.3529,-126 559.3529,-122 461.6471,-122 461.6471,-86 586.3529,-86 586.3529,-122"/>
<text text-anchor="middle" x="524" y="-99.8" font-family="Times,serif" font-size="14.00" fill="#000000">WWWMapModule</text>
</g>
<!-- WWWMapModule&#45;&gt;UkisModule -->
<g id="edge5" class="edge">
<title>WWWMapModule&#45;&gt;UkisModule</title>
<path fill="none" stroke="#000000" d="M566.2153,-122.1061C566.2153,-122.1061 566.2153,-140.991 566.2153,-140.991"/>
<polygon fill="#000000" stroke="#000000" points="562.7154,-140.9909 566.2153,-150.991 569.7154,-140.991 562.7154,-140.9909"/>
</g>
<!-- MapcontrolModule -->
<g id="node7" class="node">
<title>MapcontrolModule</title>
<polygon fill="#8dd3c7" stroke="#000000" points="443.3655,-122 440.3655,-126 419.3655,-126 416.3655,-122 318.6345,-122 318.6345,-86 443.3655,-86 443.3655,-122"/>
<text text-anchor="middle" x="381" y="-99.8" font-family="Times,serif" font-size="14.00" fill="#000000">MapcontrolModule</text>
</g>
<!-- MapcontrolModule&#45;&gt;UkisModule -->
<g id="edge6" class="edge">
<title>MapcontrolModule&#45;&gt;UkisModule</title>
<path fill="none" stroke="#000000" d="M381,-122.027C381,-138.3976 381,-160 381,-160 381,-160 535.9023,-160 535.9023,-160"/>
<polygon fill="#000000" stroke="#000000" points="535.9023,-163.5001 545.9023,-160 535.9022,-156.5001 535.9023,-163.5001"/>
</g>
<!-- MapnavigatorModule -->
<g id="node8" class="node">
<title>MapnavigatorModule</title>
<polygon fill="#8dd3c7" stroke="#000000" points="301.08,-122 298.08,-126 277.08,-126 274.08,-122 162.92,-122 162.92,-86 301.08,-86 301.08,-122"/>
<text text-anchor="middle" x="232" y="-99.8" font-family="Times,serif" font-size="14.00" fill="#000000">MapnavigatorModule</text>
</g>
<!-- MapnavigatorModule&#45;&gt;UkisModule -->
<g id="edge7" class="edge">
<title>MapnavigatorModule&#45;&gt;UkisModule</title>
<path fill="none" stroke="#000000" d="M232,-122.1061C232,-141.3391 232,-169 232,-169 232,-169 535.9375,-169 535.9375,-169"/>
<polygon fill="#000000" stroke="#000000" points="535.9375,-172.5001 545.9375,-169 535.9374,-165.5001 535.9375,-172.5001"/>
</g>
<!-- LayerentryModule -->
<g id="node9" class="node">
<title>LayerentryModule</title>
<polygon fill="#8dd3c7" stroke="#000000" points="144.458,-122 141.458,-126 120.458,-126 117.458,-122 23.542,-122 23.542,-86 144.458,-86 144.458,-122"/>
<text text-anchor="middle" x="84" y="-99.8" font-family="Times,serif" font-size="14.00" fill="#000000">LayerentryModule</text>
</g>
<!-- LayerentryModule&#45;&gt;UkisModule -->
<g id="edge8" class="edge">
<title>LayerentryModule&#45;&gt;UkisModule</title>
<path fill="none" stroke="#000000" d="M84,-122.2921C84,-144.2057 84,-178 84,-178 84,-178 535.944,-178 535.944,-178"/>
<polygon fill="#000000" stroke="#000000" points="535.944,-181.5001 545.944,-178 535.9439,-174.5001 535.944,-181.5001"/>
</g>
</g>
</svg>
