<?xml version="1.0" encoding="UTF-8" standalone="no"?>
<!DOCTYPE svg PUBLIC "-//W3C//DTD SVG 1.1//EN"
 "http://www.w3.org/Graphics/SVG/1.1/DTD/svg11.dtd">
<!-- Generated by graphviz version 2.40.1 (20161225.0304)
 -->
<!-- Title: dependencies Pages: 1 -->
<svg width="1031pt" height="284pt"
 viewBox="0.00 0.00 1031.00 284.00" xmlns="http://www.w3.org/2000/svg" xmlns:xlink="http://www.w3.org/1999/xlink">
<g id="graph0" class="graph" transform="scale(1 1) rotate(0) translate(4 280)">
<title>dependencies</title>
<polygon fill="#ffffff" stroke="transparent" points="-4,4 -4,-280 1027,-280 1027,4 -4,4"/>
<text text-anchor="start" x="490.5091" y="-42.4" font-family="sans-serif" font-weight="bold" font-size="14.00" fill="#000000">Legend</text>
<polygon fill="#ffffb3" stroke="transparent" points="277.5,-10 277.5,-30 297.5,-30 297.5,-10 277.5,-10"/>
<text text-anchor="start" x="301.129" y="-15.4" font-family="sans-serif" font-size="14.00" fill="#000000"> &#160;Declarations</text>
<polygon fill="#8dd3c7" stroke="transparent" points="390.5,-10 390.5,-30 410.5,-30 410.5,-10 390.5,-10"/>
<text text-anchor="start" x="414.2251" y="-15.4" font-family="sans-serif" font-size="14.00" fill="#000000"> &#160;Module</text>
<polygon fill="#80b1d3" stroke="transparent" points="476.5,-10 476.5,-30 496.5,-30 496.5,-10 476.5,-10"/>
<text text-anchor="start" x="500.2812" y="-15.4" font-family="sans-serif" font-size="14.00" fill="#000000"> &#160;Bootstrap</text>
<polygon fill="#fdb462" stroke="transparent" points="573.5,-10 573.5,-30 593.5,-30 593.5,-10 573.5,-10"/>
<text text-anchor="start" x="597.1732" y="-15.4" font-family="sans-serif" font-size="14.00" fill="#000000"> &#160;Providers</text>
<polygon fill="#fb8072" stroke="transparent" points="669.5,-10 669.5,-30 689.5,-30 689.5,-10 669.5,-10"/>
<text text-anchor="start" x="693.2258" y="-15.4" font-family="sans-serif" font-size="14.00" fill="#000000"> &#160;Exports</text>
<g id="clust1" class="cluster">
<title>cluster_UkisModule</title>
<polygon fill="none" stroke="#000000" stroke-dasharray="1,5" points="8,-70 8,-268 1015,-268 1015,-70 8,-70"/>
</g>
<g id="clust2" class="cluster">
<title>cluster_UkisModule_declarations</title>
<polygon fill="none" stroke="#000000" points="577,-78 577,-130 1007,-130 1007,-78 577,-78"/>
</g>
<g id="clust6" class="cluster">
<title>cluster_UkisModule_imports</title>
<polygon fill="none" stroke="#000000" points="16,-78 16,-130 569,-130 569,-78 16,-78"/>
</g>
<g id="clust8" class="cluster">
<title>cluster_UkisModule_bootstrap</title>
<polygon fill="none" stroke="#000000" points="447,-208 447,-260 575,-260 575,-208 447,-208"/>
</g>
<!-- UkisComponent -->
<g id="node1" class="node">
<title>UkisComponent</title>
<polygon fill="#ffffb3" stroke="#000000" points="998.7744,-122 891.2256,-122 891.2256,-86 998.7744,-86 998.7744,-122"/>
<text text-anchor="middle" x="945" y="-99.8" font-family="Times,serif" font-size="14.00" fill="#000000">UkisComponent</text>
</g>
<!-- UkisModule -->
<g id="node4" class="node">
<title>UkisModule</title>
<polygon fill="#8dd3c7" stroke="#000000" points="553.9916,-187 550.9916,-191 529.9916,-191 526.9916,-187 468.0084,-187 468.0084,-151 553.9916,-151 553.9916,-187"/>
<text text-anchor="middle" x="511" y="-164.8" font-family="Times,serif" font-size="14.00" fill="#000000">UkisModule</text>
</g>
<!-- UkisComponent&#45;&gt;UkisModule -->
<g id="edge1" class="edge">
<title>UkisComponent&#45;&gt;UkisModule</title>
<path fill="none" stroke="#000000" d="M945,-122.2921C945,-144.2057 945,-178 945,-178 945,-178 564.2003,-178 564.2003,-178"/>
<polygon fill="#000000" stroke="#000000" points="564.2003,-174.5001 554.2003,-178 564.2002,-181.5001 564.2003,-174.5001"/>
</g>
<!-- GlobalAlertComponent -->
<g id="node2" class="node">
<title>GlobalAlertComponent</title>
<polygon fill="#ffffb3" stroke="#000000" points="873.1979,-122 724.8021,-122 724.8021,-86 873.1979,-86 873.1979,-122"/>
<text text-anchor="middle" x="799" y="-99.8" font-family="Times,serif" font-size="14.00" fill="#000000">GlobalAlertComponent</text>
</g>
<!-- GlobalAlertComponent&#45;&gt;UkisModule -->
<g id="edge2" class="edge">
<title>GlobalAlertComponent&#45;&gt;UkisModule</title>
<path fill="none" stroke="#000000" d="M799,-122.1061C799,-141.3391 799,-169 799,-169 799,-169 564.1165,-169 564.1165,-169"/>
<polygon fill="#000000" stroke="#000000" points="564.1165,-165.5001 554.1165,-169 564.1165,-172.5001 564.1165,-165.5001"/>
</g>
<!-- HeaderComponent -->
<g id="node3" class="node">
<title>HeaderComponent</title>
<polygon fill="#ffffb3" stroke="#000000" points="706.7437,-122 585.2563,-122 585.2563,-86 706.7437,-86 706.7437,-122"/>
<text text-anchor="middle" x="646" y="-99.8" font-family="Times,serif" font-size="14.00" fill="#000000">HeaderComponent</text>
</g>
<!-- HeaderComponent&#45;&gt;UkisModule -->
<g id="edge3" class="edge">
<title>HeaderComponent&#45;&gt;UkisModule</title>
<path fill="none" stroke="#000000" d="M646,-122.027C646,-138.3976 646,-160 646,-160 646,-160 564.086,-160 564.086,-160"/>
<polygon fill="#000000" stroke="#000000" points="564.0861,-156.5001 554.086,-160 564.086,-163.5001 564.0861,-156.5001"/>
</g>
<!-- UkisComponent  -->
<g id="node9" class="node">
<title>UkisComponent </title>
<polygon fill="#80b1d3" stroke="#000000" points="566.7745,-252 455.2255,-252 455.2255,-216 566.7745,-216 566.7745,-252"/>
<text text-anchor="middle" x="511" y="-229.8" font-family="Times,serif" font-size="14.00" fill="#000000">UkisComponent </text>
</g>
<!-- UkisModule&#45;&gt;UkisComponent  -->
<g id="edge8" class="edge">
<title>UkisModule&#45;&gt;UkisComponent </title>
<path fill="none" stroke="#000000" stroke-dasharray="1,5" d="M511,-187.1061C511,-187.1061 511,-205.991 511,-205.991"/>
<polygon fill="#000000" stroke="#000000" points="507.5001,-205.9909 511,-215.991 514.5001,-205.991 507.5001,-205.9909"/>
</g>
<!-- OlMapModule -->
<g id="node5" class="node">
<title>OlMapModule</title>
<polygon fill="#8dd3c7" stroke="#000000" points="560.7064,-122 557.7064,-126 536.7064,-126 533.7064,-122 461.2936,-122 461.2936,-86 560.7064,-86 560.7064,-122"/>
<text text-anchor="middle" x="511" y="-99.8" font-family="Times,serif" font-size="14.00" fill="#000000">OlMapModule</text>
</g>
<!-- OlMapModule&#45;&gt;UkisModule -->
<g id="edge4" class="edge">
<title>OlMapModule&#45;&gt;UkisModule</title>
<path fill="none" stroke="#000000" d="M511,-122.1061C511,-122.1061 511,-140.991 511,-140.991"/>
<polygon fill="#000000" stroke="#000000" points="507.5001,-140.9909 511,-150.991 514.5001,-140.991 507.5001,-140.9909"/>
</g>
<!-- MapcontrolModule -->
<g id="node6" class="node">
<title>MapcontrolModule</title>
<polygon fill="#8dd3c7" stroke="#000000" points="443.3655,-122 440.3655,-126 419.3655,-126 416.3655,-122 318.6345,-122 318.6345,-86 443.3655,-86 443.3655,-122"/>
<text text-anchor="middle" x="381" y="-99.8" font-family="Times,serif" font-size="14.00" fill="#000000">MapcontrolModule</text>
</g>
<!-- MapcontrolModule&#45;&gt;UkisModule -->
<g id="edge5" class="edge">
<title>MapcontrolModule&#45;&gt;UkisModule</title>
<path fill="none" stroke="#000000" d="M381,-122.027C381,-138.3976 381,-160 381,-160 381,-160 457.7119,-160 457.7119,-160"/>
<polygon fill="#000000" stroke="#000000" points="457.7119,-163.5001 467.7119,-160 457.7118,-156.5001 457.7119,-163.5001"/>
</g>
<!-- MapnavigatorModule -->
<g id="node7" class="node">
<title>MapnavigatorModule</title>
<polygon fill="#8dd3c7" stroke="#000000" points="301.08,-122 298.08,-126 277.08,-126 274.08,-122 162.92,-122 162.92,-86 301.08,-86 301.08,-122"/>
<text text-anchor="middle" x="232" y="-99.8" font-family="Times,serif" font-size="14.00" fill="#000000">MapnavigatorModule</text>
</g>
<!-- MapnavigatorModule&#45;&gt;UkisModule -->
<g id="edge6" class="edge">
<title>MapnavigatorModule&#45;&gt;UkisModule</title>
<path fill="none" stroke="#000000" d="M232,-122.1061C232,-141.3391 232,-169 232,-169 232,-169 457.7124,-169 457.7124,-169"/>
<polygon fill="#000000" stroke="#000000" points="457.7124,-172.5001 467.7124,-169 457.7123,-165.5001 457.7124,-172.5001"/>
</g>
<!-- LayerentryModule -->
<g id="node8" class="node">
<title>LayerentryModule</title>
<polygon fill="#8dd3c7" stroke="#000000" points="144.458,-122 141.458,-126 120.458,-126 117.458,-122 23.542,-122 23.542,-86 144.458,-86 144.458,-122"/>
<text text-anchor="middle" x="84" y="-99.8" font-family="Times,serif" font-size="14.00" fill="#000000">LayerentryModule</text>
</g>
<!-- LayerentryModule&#45;&gt;UkisModule -->
<g id="edge7" class="edge">
<title>LayerentryModule&#45;&gt;UkisModule</title>
<path fill="none" stroke="#000000" d="M84,-122.2921C84,-144.2057 84,-178 84,-178 84,-178 457.7071,-178 457.7071,-178"/>
<polygon fill="#000000" stroke="#000000" points="457.7071,-181.5001 467.7071,-178 457.7071,-174.5001 457.7071,-181.5001"/>
</g>
</g>
</svg>
