<?xml version="1.0" encoding="utf-8"?>
<!-- Generator: Adobe Illustrator 19.0.1, SVG Export Plug-In . SVG Version: 6.00 Build 0)  -->
<svg version="1.1" id="Ebene_1" focusable="false"
  xmlns="http://www.w3.org/2000/svg"
  xmlns:xlink="http://www.w3.org/1999/xlink" x="0px" y="0px" width="36px" height="36px" viewBox="-461 299 36 36" enable-background="new -461 299 36 36" xml:space="preserve">
  <g id="ukis">
    <path d="M-443,330.5c4.7,0,8.9-2.4,11.3-6.1h-22.6C-451.9,328.1-447.7,330.5-443,330.5z"/>
    <path d="M-456.5,316.1c0,0.3,0,0.6,0,0.9c0,1.7,0.3,3.4,0.9,4.9h21.2L-456.5,316.1z"/>
    <path d="M-430,320.5c0.3-1.1,0.5-2.3,0.5-3.5c0-3-1-5.7-2.6-7.9l-20.3,5.5L-430,320.5z"/>
    <path d="M-443,303.5c-6,0-11.2,4-12.9,9.5l22-6C-436.3,304.8-439.5,303.5-443,303.5z"/>
  </g>
  <g id="dlr_1_">
    <path id="dlr" d="M-435.2,312.2v-9.4l-9.4,9.4h-8l-7.7,7.7l9.4,0v9.4l9.4-9.4h8l7.7-7.7H-435.2L-435.2,312.2z M-437.1,307.5v4.7
		h-4.7L-437.1,307.5L-437.1,307.5z M-455.6,317.9l3.8-3.8h5.3l-3.8,3.8H-455.6L-455.6,317.9z M-448.9,324.6v-4.8h4.8L-448.9,324.6
		L-448.9,324.6z M-442.2,317.9h-5.4l3.8-3.8h5.4L-442.2,317.9L-442.2,317.9z M-434.2,317.9h-5.2l3.8-3.8h5.2L-434.2,317.9
		L-434.2,317.9z M-441.4,325.5h1.6c1.8,0,3.3,0.6,3.3,2.9c0,2.3-1.6,2.9-3.3,2.9h-1.6V325.5L-441.4,325.5z M-440.2,330.3h0.6
		c1,0,1.9-0.7,1.9-2c0-1.2-0.9-2-1.9-2h-0.6V330.3L-440.2,330.3z M-435.3,325.5h1.1v4.8h2.2v0.9h-3.4V325.5L-435.3,325.5z
		 M-430.9,325.5h1.2c1.2,0,2.7,0,2.7,1.6c0,0.7-0.5,1.2-1.2,1.3v0c0.3,0,0.5,0.3,0.6,0.6l0.9,2.2h-1.3l-0.7-1.8
		c-0.2-0.4-0.3-0.6-0.8-0.6h-0.4v2.4h-1.1V325.5L-430.9,325.5z M-429.7,327.9h0.4c0.6,0,1.2-0.1,1.2-0.8c0-0.7-0.6-0.7-1.2-0.7h-0.4
		V327.9L-429.7,327.9z"/>
  </g>
</svg>
