<?xml version="1.0" encoding="UTF-8" standalone="no"?>
<!DOCTYPE svg PUBLIC "-//W3C//DTD SVG 1.1//EN"
 "http://www.w3.org/Graphics/SVG/1.1/DTD/svg11.dtd">
<!-- Generated by graphviz version 2.40.1 (20161225.0304)
 -->
<!-- Title: dependencies Pages: 1 -->
<svg width="598pt" height="284pt"
 viewBox="0.00 0.00 598.00 284.00" xmlns="http://www.w3.org/2000/svg" xmlns:xlink="http://www.w3.org/1999/xlink">
<g id="graph0" class="graph" transform="scale(1 1) rotate(0) translate(4 280)">
<title>dependencies</title>
<polygon fill="#ffffff" stroke="transparent" points="-4,4 -4,-280 594,-280 594,4 -4,4"/>
<text text-anchor="start" x="274.0091" y="-42.4" font-family="sans-serif" font-weight="bold" font-size="14.00" fill="#000000">Legend</text>
<polygon fill="#ffffb3" stroke="transparent" points="61,-10 61,-30 81,-30 81,-10 61,-10"/>
<text text-anchor="start" x="84.629" y="-15.4" font-family="sans-serif" font-size="14.00" fill="#000000"> &#160;Declarations</text>
<polygon fill="#8dd3c7" stroke="transparent" points="174,-10 174,-30 194,-30 194,-10 174,-10"/>
<text text-anchor="start" x="197.7251" y="-15.4" font-family="sans-serif" font-size="14.00" fill="#000000"> &#160;Module</text>
<polygon fill="#80b1d3" stroke="transparent" points="260,-10 260,-30 280,-30 280,-10 260,-10"/>
<text text-anchor="start" x="283.7812" y="-15.4" font-family="sans-serif" font-size="14.00" fill="#000000"> &#160;Bootstrap</text>
<polygon fill="#fdb462" stroke="transparent" points="357,-10 357,-30 377,-30 377,-10 357,-10"/>
<text text-anchor="start" x="380.6732" y="-15.4" font-family="sans-serif" font-size="14.00" fill="#000000"> &#160;Providers</text>
<polygon fill="#fb8072" stroke="transparent" points="453,-10 453,-30 473,-30 473,-10 453,-10"/>
<text text-anchor="start" x="476.7258" y="-15.4" font-family="sans-serif" font-size="14.00" fill="#000000"> &#160;Exports</text>
<g id="clust1" class="cluster">
<title>cluster_WWWMapModule</title>
<polygon fill="none" stroke="#000000" stroke-dasharray="1,5" points="8,-70 8,-268 582,-268 582,-70 8,-70"/>
</g>
<g id="clust2" class="cluster">
<title>cluster_WWWMapModule_declarations</title>
<polygon fill="none" stroke="#000000" points="182,-78 182,-130 574,-130 574,-78 182,-78"/>
</g>
<g id="clust6" class="cluster">
<title>cluster_WWWMapModule_exports</title>
<polygon fill="none" stroke="#000000" points="96,-208 96,-260 494,-260 494,-208 96,-208"/>
</g>
<g id="clust8" class="cluster">
<title>cluster_WWWMapModule_providers</title>
<polygon fill="none" stroke="#000000" points="16,-78 16,-130 174,-130 174,-78 16,-78"/>
</g>
<!-- WWWMapComponent -->
<g id="node1" class="node">
<title>WWWMapComponent</title>
<polygon fill="#ffffb3" stroke="#000000" points="566.1359,-122 419.8641,-122 419.8641,-86 566.1359,-86 566.1359,-122"/>
<text text-anchor="middle" x="493" y="-99.8" font-family="Times,serif" font-size="14.00" fill="#000000">WWWMapComponent</text>
</g>
<!-- WWWMapModule -->
<g id="node3" class="node">
<title>WWWMapModule</title>
<polygon fill="#8dd3c7" stroke="#000000" points="358.3529,-187 355.3529,-191 334.3529,-191 331.3529,-187 233.6471,-187 233.6471,-151 358.3529,-151 358.3529,-187"/>
<text text-anchor="middle" x="296" y="-164.8" font-family="Times,serif" font-size="14.00" fill="#000000">WWWMapModule</text>
</g>
<!-- WWWMapComponent&#45;&gt;WWWMapModule -->
<g id="edge1" class="edge">
<title>WWWMapComponent&#45;&gt;WWWMapModule</title>
<path fill="none" stroke="#000000" d="M452.875,-122.1061C452.875,-141.3391 452.875,-169 452.875,-169 452.875,-169 368.4519,-169 368.4519,-169"/>
<polygon fill="#000000" stroke="#000000" points="368.4519,-165.5001 358.4519,-169 368.4519,-172.5001 368.4519,-165.5001"/>
</g>
<!-- WwwProjectionSwitchComponent -->
<g id="node2" class="node">
<title>WwwProjectionSwitchComponent</title>
<polygon fill="#ffffb3" stroke="#000000" points="401.6895,-122 190.3105,-122 190.3105,-86 401.6895,-86 401.6895,-122"/>
<text text-anchor="middle" x="296" y="-99.8" font-family="Times,serif" font-size="14.00" fill="#000000">WwwProjectionSwitchComponent</text>
</g>
<!-- WwwProjectionSwitchComponent&#45;&gt;WWWMapModule -->
<g id="edge2" class="edge">
<title>WwwProjectionSwitchComponent&#45;&gt;WWWMapModule</title>
<path fill="none" stroke="#000000" d="M296,-122.1061C296,-122.1061 296,-140.991 296,-140.991"/>
<polygon fill="#000000" stroke="#000000" points="292.5001,-140.9909 296,-150.991 299.5001,-140.991 292.5001,-140.9909"/>
</g>
<!-- WWWMapComponent  -->
<g id="node4" class="node">
<title>WWWMapComponent </title>
<polygon fill="#fb8072" stroke="#000000" points="486.1355,-252 335.8645,-252 335.8645,-216 486.1355,-216 486.1355,-252"/>
<text text-anchor="middle" x="411" y="-229.8" font-family="Times,serif" font-size="14.00" fill="#000000">WWWMapComponent </text>
</g>
<!-- WWWMapModule&#45;&gt;WWWMapComponent  -->
<g id="edge3" class="edge">
<title>WWWMapModule&#45;&gt;WWWMapComponent </title>
<path fill="none" stroke="#000000" stroke-dasharray="5,2" d="M347.1794,-187.1061C347.1794,-187.1061 347.1794,-205.991 347.1794,-205.991"/>
<polygon fill="#000000" stroke="#000000" points="343.6794,-205.9909 347.1794,-215.991 350.6794,-205.991 343.6794,-205.9909"/>
</g>
<!-- WwwProjectionSwitchComponent  -->
<g id="node5" class="node">
<title>WwwProjectionSwitchComponent </title>
<polygon fill="#fb8072" stroke="#000000" points="318.1896,-252 103.8104,-252 103.8104,-216 318.1896,-216 318.1896,-252"/>
<text text-anchor="middle" x="211" y="-229.8" font-family="Times,serif" font-size="14.00" fill="#000000">WwwProjectionSwitchComponent </text>
</g>
<!-- WWWMapModule&#45;&gt;WwwProjectionSwitchComponent  -->
<g id="edge4" class="edge">
<title>WWWMapModule&#45;&gt;WwwProjectionSwitchComponent </title>
<path fill="none" stroke="#000000" stroke-dasharray="5,2" d="M275.9592,-187.1061C275.9592,-187.1061 275.9592,-205.991 275.9592,-205.991"/>
<polygon fill="#000000" stroke="#000000" points="272.4592,-205.9909 275.9592,-215.991 279.4592,-205.991 272.4592,-205.9909"/>
</g>
<!-- WWWMapSvc -->
<g id="node6" class="node">
<title>WWWMapSvc</title>
<ellipse fill="#fdb462" stroke="#000000" cx="95" cy="-104" rx="70.6297" ry="18"/>
<text text-anchor="middle" x="95" y="-99.8" font-family="Times,serif" font-size="14.00" fill="#000000">WWWMapSvc</text>
</g>
<!-- WWWMapSvc&#45;&gt;WWWMapModule -->
<g id="edge5" class="edge">
<title>WWWMapSvc&#45;&gt;WWWMapModule</title>
<path fill="none" stroke="#000000" d="M134.6101,-119.0757C134.6101,-138.2773 134.6101,-169 134.6101,-169 134.6101,-169 223.6024,-169 223.6024,-169"/>
<polygon fill="#000000" stroke="#000000" points="223.6025,-172.5001 233.6024,-169 223.6024,-165.5001 223.6025,-172.5001"/>
</g>
</g>
</svg>
